<svg width="16" height="16" viewBox="0 0 16 16" fill="none" xmlns="http://www.w3.org/2000/svg">
<path d="M9.46004 9.46001L4.00004 12L6.54004 6.54001L12 4.00001L9.46004 9.46001ZM8.00004 1.33334C7.12456 1.33334 6.25766 1.50578 5.44882 1.84081C4.63998 2.17584 3.90505 2.66691 3.286 3.28596C2.03575 4.53621 1.33337 6.2319 1.33337 8.00001C1.33337 9.76812 2.03575 11.4638 3.286 12.7141C3.90505 13.3331 4.63998 13.8242 5.44882 14.1592C6.25766 14.4942 7.12456 14.6667 8.00004 14.6667C9.76815 14.6667 11.4638 13.9643 12.7141 12.7141C13.9643 11.4638 14.6667 9.76812 14.6667 8.00001C14.6667 7.12453 14.4943 6.25762 14.1592 5.44879C13.8242 4.63995 13.3331 3.90502 12.7141 3.28596C12.095 2.66691 11.3601 2.17584 10.5513 1.84081C9.74243 1.50578 8.87552 1.33334 8.00004 1.33334ZM8.00004 7.26668C7.80555 7.26668 7.61902 7.34394 7.4815 7.48147C7.34397 7.61899 7.26671 7.80552 7.26671 8.00001C7.26671 8.1945 7.34397 8.38103 7.4815 8.51856C7.61902 8.65608 7.80555 8.73334 8.00004 8.73334C8.19453 8.73334 8.38106 8.65608 8.51859 8.51856C8.65611 8.38103 8.73337 8.1945 8.73337 8.00001C8.73337 7.80552 8.65611 7.61899 8.51859 7.48147C8.38106 7.34394 8.19453 7.26668 8.00004 7.26668Z" fill="white"/>
</svg>
