<svg width="16" height="16" viewBox="0 0 16 16" fill="none" xmlns="http://www.w3.org/2000/svg">
<path d="M10.3334 8.00001C12 8.00001 13.3334 9.33334 13.3334 11C13.3334 11.5867 13.1667 12.14 12.8734 12.6L14.9267 14.6667L14 15.5933L11.92 13.5467C11.46 13.8333 10.9134 14 10.3334 14C8.66671 14 7.33337 12.6667 7.33337 11C7.33337 9.33334 8.66671 8.00001 10.3334 8.00001ZM10.3334 9.33334C9.89135 9.33334 9.46742 9.50894 9.15486 9.8215C8.8423 10.1341 8.66671 10.558 8.66671 11C8.66671 11.442 8.8423 11.866 9.15486 12.1785C9.46742 12.4911 9.89135 12.6667 10.3334 12.6667C10.7754 12.6667 11.1993 12.4911 11.5119 12.1785C11.8244 11.866 12 11.442 12 11C12 10.558 11.8244 10.1341 11.5119 9.8215C11.1993 9.50894 10.7754 9.33334 10.3334 9.33334ZM9.33337 4.07334L5.33337 2.66668V10.5933L6.00004 10.8267V11C6.00004 11.4267 6.06004 11.84 6.17337 12.2267L5.33337 11.9333L1.77337 13.3133L1.66671 13.3333C1.5783 13.3333 1.49352 13.2982 1.43101 13.2357C1.36849 13.1732 1.33337 13.0884 1.33337 13V2.92001C1.33337 2.76668 1.43337 2.64668 1.57337 2.60001L5.33337 1.33334L9.33337 2.73334L12.8934 1.33334H13C13.0884 1.33334 13.1732 1.36846 13.2357 1.43097C13.2983 1.49349 13.3334 1.57827 13.3334 1.66668V7.87334C12.5273 7.09792 11.4519 6.66536 10.3334 6.66668C10 6.66668 9.66671 6.70668 9.33337 6.78001V4.07334Z" fill="white"/>
</svg>
